<svg xmlns="http://www.w3.org/2000/svg" style="background:0 0" width="275.467" height="159.23" preserveAspectRatio="xMidYMid" viewBox="112.266 -4.615 275.467 159.23"><defs><filter id="editing-hole" width="300%" height="300%" x="-100%" y="-100%"><feFlood flood-color="#000" result="black"/><feMorphology in="SourceGraphic" operator="dilate" radius="2" result="erode"/><feGaussianBlur in="erode" result="blur" stdDeviation="4"/><feOffset dx="2" dy="2" in="blur" result="offset"/><feComposite in="offset" in2="black" operator="atop" result="merge"/><feComposite in="merge" in2="SourceGraphic" operator="in" result="inner-shadow"/></filter></defs><g filter="url(#editing-hole)"><g><path fill="#aea8af" d="M15.94 0.58L15.94 0.58Q9.22 0.58 3.46-2.30L3.46-2.30L4.86-5.82L4.86-5.82Q7.62-4.48 10.37-3.87L10.37-3.87L10.37-3.87Q13.12-3.26 16.32-3.26L16.32-3.26L16.32-3.26Q20.48-3.26 23.87-4.54L23.87-4.54L23.87-4.54Q24.90-6.78 24.90-9.92L24.90-9.92L24.90-9.92Q24.90-13.18 22.98-14.85L22.98-14.85L22.98-14.85Q21.06-16.51 16.32-17.73L16.32-17.73L16.32-17.73Q10.56-19.14 7.42-21.47L7.42-21.47L7.42-21.47Q4.29-23.81 4.29-28.61L4.29-28.61L4.29-28.61Q4.29-33.60 7.23-36.77L7.23-36.77L7.23-36.77Q10.18-39.94 17.09-39.94L17.09-39.94L17.09-39.94Q20.67-39.94 23.10-39.33L23.10-39.33L23.10-39.33Q25.54-38.72 27.71-37.50L27.71-37.50L27.71-35.52L27.71-35.52Q27.71-33.09 26.75-30.08L26.75-30.08L23.94-30.08L23.30-35.78L23.30-35.78Q19.20-36.29 16.70-36.29L16.70-36.29L16.70-36.29Q12.16-36.29 10.24-34.56L10.24-34.56L10.24-34.56Q8.32-32.83 8.32-29.12L8.32-29.12L8.32-29.12Q8.32-26.94 9.22-25.57L9.22-25.57L9.22-25.57Q10.11-24.19 12.06-23.30L12.06-23.30L12.06-23.30Q14.02-22.40 17.54-21.57L17.54-21.57L17.54-21.57Q23.62-20.16 26.30-17.82L26.30-17.82L26.30-17.82Q28.99-15.49 28.99-11.14L28.99-11.14L28.99-11.14Q28.99-5.95 26.05-2.69L26.05-2.69L26.05-2.69Q23.10 0.58 15.94 0.58L15.94 0.58ZM44.35 0.58L44.35 0.58Q40.19 0.58 37.98-1.44L37.98-1.44L37.98-1.44Q35.78-3.46 35.78-6.91L35.78-6.91L35.78-6.91Q35.78-11.71 39.30-14.11L39.30-14.11L39.30-14.11Q42.82-16.51 49.15-16.51L49.15-16.51L49.15-16.51Q51.26-16.51 54.08-16.26L54.08-16.26L54.08-20.61L54.08-20.61Q54.08-24.45 52.54-25.89L52.54-25.89L52.54-25.89Q51.01-27.33 47.17-27.33L47.17-27.33L47.17-27.33Q44.48-27.33 42.24-27.01L42.24-27.01L41.60-22.40L38.72-22.40L38.72-22.40Q38.02-24.38 38.02-26.30L38.02-26.30L38.02-27.52L38.02-27.52Q40.06-28.67 43.04-29.57L43.04-29.57L43.04-29.57Q46.02-30.46 48.70-30.46L48.70-30.46L48.70-30.46Q53.12-30.46 55.55-28.06L55.55-28.06L55.55-28.06Q57.98-25.66 57.98-21.18L57.98-21.18L57.98 0L54.66 0L54.40-4.22L53.89-4.22L53.89-4.22Q52.22-1.98 49.76-0.70L49.76-0.70L49.76-0.70Q47.30 0.58 44.35 0.58L44.35 0.58ZM44.99-2.56L44.99-2.56Q47.81-2.56 50.24-3.90L50.24-3.90L50.24-3.90Q52.67-5.25 54.27-7.62L54.27-7.62L54.27-13.31L54.27-13.31Q51.39-13.82 47.87-13.82L47.87-13.82L47.87-13.82Q43.65-13.82 41.28-13.12L41.28-13.12L41.28-13.12Q40.51-11.65 40.16-10.34L40.16-10.34L40.16-10.34Q39.81-9.02 39.81-7.49L39.81-7.49L39.81-7.49Q39.81-4.74 41.12-3.65L41.12-3.65L41.12-3.65Q42.43-2.56 44.99-2.56L44.99-2.56ZM79.23 0.58L79.23 0.58Q66.05 0.58 66.05-13.82L66.05-13.82L66.05-13.82Q66.05-21.50 69.22-25.98L69.22-25.98L69.22-25.98Q72.38-30.46 78.85-30.46L78.85-30.46L78.85-30.46Q81.47-30.46 83.74-29.79L83.74-29.79L83.74-29.79Q86.02-29.12 87.68-27.97L87.68-27.97L87.68-26.11L87.68-26.11Q87.68-23.49 86.91-21.38L86.91-21.38L84.29-21.38L83.84-26.30L83.84-26.30Q81.60-26.88 78.59-26.88L78.59-26.88L78.59-26.88Q74.30-26.88 72-25.86L72-25.86L72-25.86Q70.98-23.68 70.40-20.54L70.40-20.54L70.40-20.54Q69.82-17.41 69.82-13.89L69.82-13.89L69.82-13.89Q69.82-8.51 72.10-5.73L72.10-5.73L72.10-5.73Q74.37-2.94 79.36-2.94L79.36-2.94L79.36-2.94Q84.03-2.94 87.49-5.63L87.49-5.63L89.34-2.94L89.34-2.94Q87.23-1.22 84.86-0.32L84.86-0.32L84.86-0.32Q82.50 0.58 79.23 0.58L79.23 0.58ZM96.45 0L96.45-42.82L100.29-42.82L100.29-30.59L100.10-25.47L100.48-25.47L100.48-25.47Q105.47-30.46 111.55-30.46L111.55-30.46L111.55-30.46Q115.58-30.46 117.54-28.83L117.54-28.83L117.54-28.83Q119.49-27.20 119.49-23.42L119.49-23.42L119.49 0L115.65 0L115.65-26.24L115.65-26.24Q113.66-26.94 110.85-26.94L110.85-26.94L110.85-26.94Q107.65-26.94 104.93-25.76L104.93-25.76L104.93-25.76Q102.21-24.58 100.29-22.53L100.29-22.53L100.29 0L96.45 0ZM140.86 0.58L140.86 0.58Q127.94 0.58 127.94-14.78L127.94-14.78L127.94-14.78Q127.94-22.14 131.23-26.30L131.23-26.30L131.23-26.30Q134.53-30.46 140.86-30.46L140.86-30.46L140.86-30.46Q146.11-30.46 148.93-27.33L148.93-27.33L148.93-27.33Q151.74-24.19 151.74-18.62L151.74-18.62L151.74-18.62Q151.74-17.98 151.62-16.58L151.62-16.58L148.35-13.31L131.71-13.44L131.71-13.44Q131.84-8.13 134.11-5.47L134.11-5.47L134.11-5.47Q136.38-2.82 141.06-2.82L141.06-2.82L141.06-2.82Q143.87-2.82 145.86-3.42L145.86-3.42L145.86-3.42Q147.84-4.03 149.95-5.31L149.95-5.31L151.23-2.30L151.23-2.30Q148.86-0.90 146.53-0.16L146.53-0.16L146.53-0.16Q144.19 0.58 140.86 0.58L140.86 0.58ZM131.65-16.32L147.78-16.58L147.78-16.58Q148.16-18.11 148.16-19.65L148.16-19.65L148.16-19.65Q148.16-23.10 146.24-25.09L146.24-25.09L146.24-25.09Q144.32-27.07 140.61-27.07L140.61-27.07L140.61-27.07Q135.87-27.07 133.89-24.45L133.89-24.45L133.89-24.45Q131.90-21.82 131.65-16.32L131.65-16.32ZM159.94 0L159.94-29.95L163.20-29.95L163.52-25.47L163.97-25.47L163.97-25.47Q168.96-30.46 175.04-30.46L175.04-30.46L175.04-30.46Q179.07-30.46 181.02-28.83L181.02-28.83L181.02-28.83Q182.98-27.20 182.98-23.42L182.98-23.42L182.98 0L179.14 0L179.14-26.24L179.14-26.24Q177.15-26.94 174.34-26.94L174.34-26.94L174.34-26.94Q171.14-26.94 168.42-25.76L168.42-25.76L168.42-25.76Q165.70-24.58 163.78-22.53L163.78-22.53L163.78 0L159.94 0Z" transform="translate(156.7800054550171, 96.70000076293945)"/></g></g><style/></svg>