<?xml version="1.0" encoding="UTF-8" standalone="no"?> <!-- Created with Vectornator for iOS (http://vectornator.io/) --><!DOCTYPE svg PUBLIC "-//W3C//DTD SVG 1.1//EN" "http://www.w3.org/Graphics/SVG/1.1/DTD/svg11.dtd">
<svg style="fill-rule:evenodd;clip-rule:evenodd;stroke-linecap:round;stroke-linejoin:round;" xmlns:vectornator="http://vectornator.io" xmlns:xlink="http://www.w3.org/1999/xlink" xmlns="http://www.w3.org/2000/svg" xml:space="preserve" version="1.1" viewBox="0 0 512 512">
<metadata>
<vectornator:setting key="DynamicGuides" value="1"/>
<vectornator:setting key="Units" value="Points"/>
<vectornator:setting key="GuidesVisible" value="1"/>
<vectornator:setting key="RulersVisible" value="1"/>
<vectornator:setting key="SnapToGuides" value="1"/>
<vectornator:setting key="GridSpacing" value="36"/>
</metadata>
<defs/>
<g id="Untitled" vectornator:layerName="Untitled">
<path d="M176.937+294.494L184.263+294.494C185.344+294.494+186.2+293.522+186.124+292.368C185.769+286.959+184.865+272.917+184.865+270.312C184.865+267.071+189.063+245.88+186.264+234.662L179.502+241.892L176.937+294.494Z" opacity="1" fill="#ffffff"/>
<path d="M126.335+248.747L112.216+275.564C111.839+276.266+111.599+277.042+111.51+277.846L110.67+285.477C110.595+286.165+110.408+286.834+110.118+287.454L107.849+292.304C107.379+293.311+108.063+294.494+109.116+294.494L120.855+294.494L123.77+276.669L137.062+259.841L126.335+248.747Z" opacity="1" fill="#ffffff"/>
<path d="M186.265+234.662C184.399+222.695+171.341+206.74+160.148+208.734C148.955+210.728+145.224+212.723+134.031+206.74C122.838+200.756+117.241+204.745+117.241+204.745C111.645+206.74+104.541+205.429+99.5188+207.986C95.4399+210.062+89.336+229.717+87.7425+239.897C87.61+240.744+86.7778+245.281+86.7708+247.127C86.7409+254.938+88.8393+275.337+96.5053+280.717C97.9572+281.735+99.5422+282.246+101.202+282.246C102.452+282.246+103.745+281.956+105.053+281.374C106.006+280.95+106.456+279.783+106.059+278.766C105.665+277.747+104.565+277.272+103.621+277.691C101.686+278.55+100.08+278.451+98.5528+277.382C97.3124+276.512+96.2233+275.034+95.2658+273.189C92.7252+265.176+93.8445+252.629+94.5003+247.238C94.6904+245.675+95.6429+244.376+96.9844+243.722C100.621+241.95+104.921+238.937+107.413+237.102C108.73+236.132+110.407+235.916+111.898+236.534L111.898+236.534C113.559+237.223+114.729+238.836+114.94+240.728L119.915+285.403C119.996+286.131+119.887+286.869+119.602+287.536L117.345+292.799C117.006+293.592+117.547+294.495+118.363+294.495L126.568+294.495C127.598+294.495+128.433+293.602+128.433+292.501L128.433+256.6C128.433+256.6+143.45+270.262+162.724+264.63L167.768+270.761C168.367+271.489+168.697+272.425+168.697+273.394L168.697+285.756C168.697+286.259+168.608+286.757+168.435+287.224L166.35+292.857C166.059+293.643+166.6+294.494+167.39+294.494L178.802+294.494L178.802+268.567C178.803+262.584+188.13+246.628+186.265+234.662Z" opacity="1" fill="#ffffff"/>
<g opacity="1">
<path d="M128.434+256.587L128.434+256.6C128.434+256.6+143.45+270.262+162.725+264.63L157.113+258.63C156.384+257.851+155.389+257.464+154.358+257.475C147.081+257.554+138.605+254.84+133.379+252.845C130.963+251.923+128.434+253.845+128.434+256.587Z" opacity="1" fill="#ffffff"/>
<path d="M112.995+211.111L109.381+219.914C107.102+225.465+107.796+232+111.445+236.64C111.735+237.009+112.003+237.313+112.237+237.538C112.945+238.218+114.009+238.201+114.71+237.513C114.849+237.376+114.997+237.229+115.155+237.071C116.091+236.13+116.97+235.127+117.806+234.085L120.474+230.756C121.849+229.041+123.123+227.226+124.161+225.259C125.275+223.148+126.153+220.927+126.569+218.706C127.591+213.24+124.763+207.044+119.809+206.532C116.886+206.23+114.175+208.237+112.995+211.111Z" opacity="1" fill="#ffffff"/>
</g>
<path d="M75.9426+246.171C78.7839+245.295+84.7399+243.137+88.4333+239.527C88.9689+239.004+89.7258+238.841+90.371+239.196C91.5289+239.833+93.3014+241.02+94.2397+242.702C94.7935+243.694+94.3753+244.982+93.4226+245.528C90.3405+247.295+82.7965+250.791+75.8684+247.483C75.3123+247.217+75.3574+246.352+75.9426+246.171Z" opacity="1" fill="#ffffff"/>
<path d="M96.7203+228.678C95.6892+228.678+94.8456+227.785+94.8456+226.684C94.8456+225.582+95.6709+224.689+96.7019+224.689L96.7201+224.689C97.7511+224.689+98.5855+225.582+98.5855+226.684C98.5855+227.785+97.7513+228.678+96.7203+228.678Z" opacity="1" fill="#ffffff"/>
<path d="M93.0823+241.226C89.6564+243.709+82.8447+247.69+75.4993+246.731C75.4572+247.023+75.5672+247.339+75.8682+247.483C82.7965+250.79+90.3405+247.295+93.4223+245.528C94.3748+244.981+94.7932+243.694+94.2395+242.701C93.9311+242.148+93.5197+241.67+93.0823+241.226Z" opacity="1" fill="#ffffff"/>
<path d="M217.336+282.425L217.336+282.425C211.115+282.425+205.338+280.945+200.006+277.985L200.006+277.985L201.95+272.558L201.95+272.558C204.505+273.935+207.056+274.937+209.601+275.564L209.601+275.564L209.601+275.564C212.147+276.191+214.902+276.505+217.864+276.505L217.864+276.505L217.864+276.505C221.715+276.505+225.21+275.847+228.349+274.531L228.349+274.531L228.349+274.531C229.302+272.229+229.779+269.464+229.779+266.237L229.779+266.237L229.779+266.237C229.779+262.886+228.89+260.352+227.113+258.636L227.113+258.636L227.113+258.636C225.335+256.929+222.252+255.449+217.864+254.195L217.864+254.195L217.864+254.195C212.532+252.746+208.412+250.824+205.505+248.429L205.505+248.429L205.505+248.429C202.607+246.024+201.158+242.355+201.158+237.421L201.158+237.421L201.158+237.421C201.158+232.292+202.519+228.099+205.241+224.84L205.241+224.84L205.241+224.84C207.972+221.582+212.536+219.953+218.933+219.953L218.933+219.953L218.933+219.953C222.248+219.953+225.03+220.266+227.279+220.893L227.279+220.893L227.279+220.893C229.538+221.52+231.672+222.461+233.681+223.715L233.681+223.715L233.681+226.768L233.681+226.768C233.681+229.265+233.237+232.061+232.348+235.155L232.348+235.155L228.446+235.155L227.557+226.367L227.557+226.367C223.761+225.842+220.706+225.58+218.392+225.58L218.392+225.58L218.392+225.58C214.189+225.58+211.198+226.469+209.421+228.248L209.421+228.248L209.421+228.248C207.643+230.026+206.755+232.822+206.755+236.635L206.755+236.635L206.755+236.635C206.755+238.875+207.171+240.7+208.004+242.108L208.004+242.108L208.004+242.108C208.828+243.526+210.143+244.693+211.948+245.608L211.948+245.608L211.948+245.608C213.763+246.533+216.3+247.422+219.558+248.275L219.558+248.275L219.558+248.275C225.187+249.724+229.242+251.652+231.723+254.057L231.723+254.057L231.723+254.057C234.214+256.452+235.459+259.885+235.459+264.356L235.459+264.356L235.459+264.356C235.459+269.69+234.098+274.033+231.376+277.383L231.376+277.383L231.376+277.383C228.645+280.745+223.965+282.425+217.336+282.425L217.336+282.425ZM256.789+282.425L256.789+282.425C252.938+282.425+249.989+281.387+247.943+279.311L247.943+279.311L247.943+279.311C245.906+277.234+244.888+274.423+244.888+270.877L244.888+270.877L244.888+270.877C244.888+265.944+246.517+262.243+249.776+259.777L249.776+259.777L249.776+259.777C253.035+257.31+257.595+256.076+263.455+256.076L263.455+256.076L263.455+256.076C265.408+256.076+267.69+256.205+270.301+256.462L270.301+256.462L270.301+249.755L270.301+249.755C270.301+245.808+269.588+243.095+268.162+241.615L268.162+241.615L268.162+241.615C266.746+240.135+264.26+239.395+260.705+239.395L260.705+239.395L260.705+239.395C258.215+239.395+255.933+239.559+253.859+239.888L253.859+239.888L252.97+246.995L248.971+246.995L248.971+246.995C248.323+244.96+247.999+242.956+247.999+240.983L247.999+240.983L247.999+239.102L247.999+239.102C249.887+237.92+252.211+236.866+254.97+235.941L254.97+235.941L254.97+235.941C257.729+235.026+260.349+234.569+262.83+234.569L262.83+234.569L262.83+234.569C266.922+234.569+270.093+235.802+272.342+238.269L272.342+238.269L272.342+238.269C274.592+240.736+275.717+244.272+275.717+248.876L275.717+248.876L275.717+281.531L271.106+281.531L270.745+275.025L270.037+275.025L270.037+275.025C268.491+277.327+266.579+279.136+264.302+280.452L264.302+280.452L264.302+280.452C262.024+281.767+259.52+282.425+256.789+282.425L256.789+282.425ZM257.678+277.584L257.678+277.584C260.289+277.584+262.719+276.895+264.968+275.518L264.968+275.518L264.968+275.518C267.218+274.13+269.084+272.219+270.565+269.783L270.565+269.783L270.565+261.01L270.565+261.01C267.899+260.486+264.936+260.224+261.677+260.224L261.677+260.224L261.677+260.224C257.77+260.224+254.72+260.583+252.526+261.303L252.526+261.303L252.526+261.303C251.813+262.814+251.295+264.243+250.97+265.589L250.97+265.589L250.97+265.589C250.646+266.946+250.484+268.41+250.484+269.983L250.484+269.983L250.484+269.983C250.484+272.81+251.091+274.783+252.304+275.903L252.304+275.903L252.304+275.903C253.516+277.024+255.308+277.584+257.678+277.584L257.678+277.584ZM305.227+282.425L305.227+282.425C293.025+282.425+286.924+275.025+286.924+260.224L286.924+260.224L286.924+260.224C286.924+252.33+288.391+246.081+291.326+241.476L291.326+241.476L291.326+241.476C294.251+236.871+298.709+234.569+304.699+234.569L304.699+234.569L304.699+234.569C307.124+234.569+309.388+234.913+311.49+235.602L311.49+235.602L311.49+235.602C313.6+236.29+315.424+237.226+316.961+238.408L316.961+238.408L316.961+241.275L316.961+241.275C316.961+243.968+316.605+246.399+315.892+248.568L315.892+248.568L312.253+248.568L311.628+240.983L311.628+240.983C309.555+240.386+307.124+240.088+304.338+240.088L304.338+240.088L304.338+240.088C300.366+240.088+297.316+240.613+295.186+241.661L295.186+241.661L295.186+241.661C294.242+243.902+293.501+246.636+292.964+249.863L292.964+249.863L292.964+249.863C292.427+253.08+292.159+256.498+292.159+260.116L292.159+260.116L292.159+260.116C292.159+265.646+293.214+269.839+295.325+272.697L295.325+272.697L295.325+272.697C297.427+275.564+300.787+276.998+305.407+276.998L305.407+276.998L305.407+276.998C309.731+276.998+313.494+275.616+316.697+272.851L316.697+272.851L319.266+276.998L319.266+276.998C317.313+278.766+315.239+280.112+313.045+281.037L313.045+281.037L313.045+281.037C310.86+281.963+308.254+282.425+305.227+282.425L305.227+282.425ZM329.14+281.531L329.14+215.513L334.472+215.513L334.472+234.368L334.208+242.262L334.736+242.262L334.736+242.262C339.356+237.133+344.48+234.569+350.109+234.569L350.109+234.569L350.109+234.569C353.84+234.569+356.613+235.407+358.427+237.082L358.427+237.082L358.427+237.082C360.232+238.757+361.135+241.538+361.135+245.423L361.135+245.423L361.135+281.531L355.803+281.531L355.803+241.075L355.803+241.075C353.96+240.356+351.738+239.996+349.137+239.996L349.137+239.996L349.137+239.996C346.174+239.996+343.434+240.602+340.916+241.815L340.916+241.815L340.916+241.815C338.398+243.028+336.25+244.688+334.472+246.795L334.472+246.795L334.472+281.531L329.14+281.531ZM390.811+282.425L390.811+282.425C378.85+282.425+372.87+274.531+372.87+258.744L372.87+258.744L372.87+258.744C372.87+251.179+374.392+245.258+377.438+240.983L377.438+240.983L377.438+240.983C380.493+236.707+384.951+234.569+390.811+234.569L390.811+234.569L390.811+234.569C395.672+234.569+399.407+236.177+402.018+239.395L402.018+239.395L402.018+239.395C404.62+242.622+405.92+247.098+405.92+252.823L405.92+252.823L405.92+252.823C405.92+253.481+405.865+254.529+405.754+255.968L405.754+255.968L401.213+261.01L378.105+260.81L378.105+260.81C378.225+266.267+379.336+270.363+381.438+273.097L381.438+273.097L381.438+273.097C383.539+275.821+386.756+277.183+391.089+277.183L391.089+277.183L391.089+277.183C393.691+277.183+395.912+276.875+397.755+276.258L397.755+276.258L397.755+276.258C399.588+275.631+401.481+274.66+403.435+273.344L403.435+273.344L405.212+277.985L405.212+277.985C403.018+279.424+400.842+280.524+398.685+281.284L398.685+281.284L398.685+281.284C396.519+282.045+393.894+282.425+390.811+282.425L390.811+282.425ZM378.022+256.369L400.421+255.968L400.421+255.968C400.773+254.396+400.949+252.818+400.949+251.235L400.949+251.235L400.949+251.235C400.949+247.689+400.06+244.893+398.283+242.848L398.283+242.848L398.283+242.848C396.505+240.813+393.899+239.795+390.464+239.795L390.464+239.795L390.464+239.795C386.076+239.795+382.965+241.142+381.132+243.835L381.132+243.835L381.132+243.835C379.29+246.538+378.253+250.716+378.022+256.369L378.022+256.369ZM417.308+281.531L417.308+235.355L421.835+235.355L422.279+242.262L422.904+242.262L422.904+242.262C427.524+237.133+432.648+234.569+438.277+234.569L438.277+234.569L438.277+234.569C442.008+234.569+444.776+235.407+446.581+237.082L446.581+237.082L446.581+237.082C448.396+238.757+449.303+241.538+449.303+245.423L449.303+245.423L449.303+281.531L443.97+281.531L443.97+241.075L443.97+241.075C442.128+240.356+439.906+239.996+437.305+239.996L437.305+239.996L437.305+239.996C434.342+239.996+431.602+240.602+429.084+241.815L429.084+241.815L429.084+241.815C426.565+243.028+424.418+244.688+422.64+246.795L422.64+246.795L422.64+281.531L417.308+281.531Z" opacity="1" fill="#ffffff"/>
</g>
</svg>
